<?xml version="1.0" encoding="UTF-8"?>
<svg width="490px" height="169px" viewBox="0 0 490 169" version="1.1" xmlns="http://www.w3.org/2000/svg" xmlns:xlink="http://www.w3.org/1999/xlink">
    <!-- Generator: Sketch 43.1 (39012) - http://www.bohemiancoding.com/sketch -->
    <title>LOGOLOGO</title>
    <desc>Created with Sketch.</desc>
    <defs>
        <polygon id="path-1" points="0 168.440767 489.991793 168.440767 489.991793 0.155938881 0 0.155938881"></polygon>
    </defs>
    <g id="Welcome" stroke="none" stroke-width="1" fill="none" fill-rule="evenodd">
        <g id="Desktop-HD" transform="translate(-475.000000, -278.000000)">
            <g id="LOGOLOGO" transform="translate(475.000000, 278.000000)">
                <polygon id="Fill-1" fill="#202020" points="2.04832346 1.37759187 2.04832346 11.3555127 52.0714294 11.3555127 0.000470230362 95.2927073 0.000470230362 105.86034 64.6500916 105.86034 64.6500916 95.8800601 12.139467 95.8800601 64.6500916 10.7705187 64.6500916 1.37759187"></polygon>
                <g id="Group-23" transform="translate(0.000000, 0.340860)">
                    <path d="M122.86367,106.399094 C101.802052,106.399094 86.5900998,91.873317 86.5900998,71.0352668 L86.5900998,1.03649629 L97.7086967,1.03649629 L97.7086967,70.1530582 C97.7086967,86.002148 107.651718,96.4211731 122.86367,96.4211731 C138.077973,96.4211731 148.169117,86.002148 148.169117,70.1530582 L148.169117,1.03649629 L159.283012,1.03649629 L159.283012,71.0352668 C159.283012,91.873317 143.927639,106.399094 122.86367,106.399094 Z" id="Fill-2" fill="#202020"></path>
                    <path d="M226.860992,11.0153606 L199.070378,11.0153606 L199.070378,49.3159516 L226.860992,49.3159516 C239.00234,49.3159516 247.631068,43.0060372 247.631068,30.2399598 C247.631068,17.4715235 239.00234,11.0153606 226.860992,11.0153606 L226.860992,11.0153606 Z M247.776839,105.517829 L224.081931,59.1476239 L199.070378,59.1476239 L199.070378,105.517829 L187.954132,105.517829 L187.954132,1.03743983 L227.886095,1.03743983 C246.020529,1.03743983 258.747313,12.0438177 258.747313,30.0913524 C258.747313,45.3530894 249.533149,55.3333691 236.075156,58.1215257 L260.795167,105.517829 L247.776839,105.517829 Z" id="Fill-4" fill="#202020"></path>
                    <mask id="mask-2" fill="white">
                        <use xlink:href="#path-1"></use>
                    </mask>
                    <g id="Clip-7"></g>
                    <polygon id="Fill-6" fill="#202020" mask="url(#mask-2)" points="283.903932 105.518537 295.022529 105.518537 295.022529 1.03814748 283.903932 1.03814748"></polygon>
                    <path d="M357.623122,106.399094 C347.383856,106.399094 338.021569,102.584839 331.00103,95.5389645 C321.201429,85.7096511 321.201429,75.4368745 321.201429,53.2778702 C321.201429,31.118866 321.201429,20.8484482 331.00103,11.0144171 C338.021569,3.97326021 347.383856,0.156646535 357.623122,0.156646535 C376.345344,0.156646535 390.2383,11.6017699 393.748569,31.2651145 L382.340781,31.2651145 C379.561719,18.4990371 370.639098,10.1345673 357.623122,10.1345673 C350.746003,10.1345673 344.165129,12.7764754 339.632108,17.4729389 C333.048883,24.2239576 332.317675,31.4137218 332.317675,53.2778702 C332.317675,75.1443775 333.048883,82.3341417 339.632108,89.0828016 C344.165129,93.779265 350.746003,96.4211731 357.623122,96.4211731 C370.639098,96.4211731 379.853262,88.0567034 382.634675,75.290626 L393.748569,75.290626 C390.386422,94.9516117 376.197221,106.399094 357.623122,106.399094 L238.997378,57.8824782" id="Fill-8" fill="#202020" mask="url(#mask-2)"></path>
                    <polygon id="Fill-9" fill="#202020" mask="url(#mask-2)" points="478.877193 105.519008 478.877193 57.8278493 429.439524 57.8278493 429.439524 105.519008 418.320927 105.519008 418.320927 1.03861925 429.439524 1.03861925 429.439524 47.8475696 478.877193 47.8475696 478.877193 1.03861925 489.993439 1.03861925 489.993439 105.519008"></polygon>
                    <polygon id="Fill-10" fill="#202020" mask="url(#mask-2)" points="107.243793 168.180587 107.243793 142.700327 97.8956133 163.840309 95.5609195 163.840309 86.043457 142.700327 86.043457 168.180587 83.7064121 168.180587 83.7064121 137.272621 86.043457 137.272621 96.7717627 161.104047 107.243793 137.272621 109.578487 137.272621 109.578487 168.180587"></polygon>
                    <polygon id="Fill-11" fill="#202020" mask="url(#mask-2)" points="119.10747 168.180587 119.10747 137.272621 137.799127 137.272621 137.799127 139.357841 121.444515 139.357841 121.444515 151.555436 135.37744 151.555436 135.37744 153.638298 121.444515 153.638298 121.444515 166.097725 137.799127 166.097725 137.799127 168.180587"></polygon>
                    <path d="M156.411315,139.358313 L147.326464,139.358313 L147.326464,151.860199 L156.411315,151.860199 C160.349494,151.860199 163.206143,149.862256 163.206143,145.606897 C163.206143,141.356256 160.349494,139.358313 156.411315,139.358313 L156.411315,139.358313 Z M163.15912,168.181058 L155.804718,153.943061 L147.326464,153.943061 L147.326464,168.181058 L144.989419,168.181058 L144.989419,137.273093 L156.714613,137.273093 C161.734322,137.273093 165.540837,140.183909 165.540837,145.564438 C165.540837,150.166548 162.77118,153.162283 158.44271,153.898243 L165.886456,168.181058 L163.15912,168.181058 Z" id="Fill-12" fill="#202020" mask="url(#mask-2)"></path>
                    <path d="M182.767726,168.440767 C179.871107,168.440767 177.101451,167.31088 175.067704,165.270478 C172.255727,162.451656 172.211055,159.715394 172.211055,152.728491 C172.211055,145.739229 172.255727,143.005325 175.067704,140.184145 C177.101451,138.141384 179.871107,137.013855 182.767726,137.013855 C188.264719,137.013855 192.245219,140.443618 193.239757,146.04352 L190.85804,146.04352 C189.950495,141.788161 186.924563,139.099076 182.767726,139.099076 C180.564697,139.099076 178.486279,139.922313 176.927465,141.483869 C174.722085,143.698826 174.5481,146.085979 174.5481,152.728491 C174.5481,159.368644 174.722085,161.755796 176.927465,163.968394 C178.486279,165.534669 180.564697,166.357906 182.767726,166.357906 C186.924563,166.357906 190.037488,163.666462 190.947384,159.413462 L193.239757,159.413462 C192.245219,165.011005 188.177727,168.440767 182.767726,168.440767" id="Fill-13" fill="#202020" mask="url(#mask-2)"></path>
                    <path d="M209.557926,140.399508 L203.113419,158.588573 L216.004784,158.588573 L209.557926,140.399508 Z M219.423359,168.179643 L216.740695,160.671435 L202.375157,160.671435 L199.694844,168.179643 L197.183814,168.179643 L208.521068,137.274036 L210.594784,137.274036 L221.934389,168.179643 L219.423359,168.179643 Z" id="Fill-14" fill="#202020" mask="url(#mask-2)"></path>
                    <polygon id="Fill-15" fill="#202020" mask="url(#mask-2)" points="231.932897 139.358313 231.932897 168.181058 229.598203 168.181058 229.598203 139.358313 220.424009 139.358313 220.424009 137.273093 241.149412 137.273093 241.149412 139.358313"></polygon>
                    <path d="M262.399122,141.484577 C260.84266,139.923021 258.764242,139.097424 256.558861,139.097424 C254.35113,139.097424 252.272711,139.923021 250.716249,141.484577 C248.510869,143.697175 248.339234,146.086687 248.339234,152.729198 C248.339234,159.369351 248.510869,161.756504 250.716249,163.969102 C252.272711,165.533017 254.35113,166.358614 256.558861,166.358614 C258.764242,166.358614 260.84266,165.533017 262.399122,163.969102 C264.604503,161.756504 264.778488,159.369351 264.778488,152.729198 C264.778488,146.086687 264.604503,143.697175 262.399122,141.484577 M264.258883,165.271185 C262.225137,167.311588 259.45548,168.441475 256.558861,168.441475 C253.659891,168.441475 250.890234,167.311588 248.856488,165.271185 C246.04451,162.452364 245.999838,159.716102 245.999838,152.729198 C245.999838,145.739936 246.04451,143.006033 248.856488,140.182494 C250.890234,138.142092 253.659891,137.012204 256.558861,137.012204 C259.45548,137.012204 262.225137,138.142092 264.258883,140.182494 C267.070861,143.006033 267.115533,145.739936 267.115533,152.729198 C267.115533,159.716102 267.070861,162.452364 264.258883,165.271185" id="Fill-16" fill="#202020" mask="url(#mask-2)"></path>
                    <path d="M286.852042,139.358313 L277.769542,139.358313 L277.769542,151.860199 L286.852042,151.860199 C290.792572,151.860199 293.64687,149.862256 293.64687,145.606897 C293.64687,141.356256 290.792572,139.358313 286.852042,139.358313 L286.852042,139.358313 Z M293.602198,168.181058 L286.247796,153.943061 L277.769542,153.943061 L277.769542,168.181058 L275.432497,168.181058 L275.432497,137.273093 L287.15534,137.273093 C292.175049,137.273093 295.981564,140.183909 295.981564,145.564438 C295.981564,150.166548 293.211907,153.162283 288.885788,153.898243 L296.329535,168.181058 L293.602198,168.181058 Z" id="Fill-17" fill="#202020" mask="url(#mask-2)"></path>
                    <path d="M314.898226,139.358313 L306.203667,139.358313 L306.203667,152.987728 L314.898226,152.987728 C319.139704,152.987728 322.123316,150.81523 322.123316,146.17302 C322.123316,141.528452 319.139704,139.358313 314.898226,139.358313 M315.156853,155.07059 L306.203667,155.07059 L306.203667,168.181058 L303.866622,168.181058 L303.866622,137.273093 L315.156853,137.273093 C320.479861,137.273093 324.460361,140.53066 324.460361,146.17302 C324.460361,151.815381 320.479861,155.07059 315.156853,155.07059" id="Fill-18" fill="#202020" mask="url(#mask-2)"></path>
                    <polygon id="Fill-19" fill="#202020" mask="url(#mask-2)" points="331.17478 168.180587 331.17478 137.272621 333.511825 137.272621 333.511825 166.097725 349.864086 166.097725 349.864086 168.180587"></polygon>
                    <polygon id="Fill-20" fill="#202020" mask="url(#mask-2)" points="355.930763 168.180587 355.930763 137.272621 374.620068 137.272621 374.620068 139.357841 358.265456 139.357841 358.265456 151.555436 372.198382 151.555436 372.198382 153.638298 358.265456 153.638298 358.265456 166.097725 374.620068 166.097725 374.620068 168.180587"></polygon>
                    <polygon id="Fill-21" fill="#202020" mask="url(#mask-2)" points="381.810596 168.181294 384.14529 168.181294 384.14529 137.273328 381.810596 137.273328"></polygon>
                    <polygon id="Fill-22" fill="#202020" mask="url(#mask-2)" points="413.786731 168.180587 396.00497 141.310966 396.00497 168.180587 393.667925 168.180587 393.667925 137.272621 396.00497 137.272621 413.786731 164.057323 413.786731 137.272621 416.123776 137.272621 416.123776 168.180587"></polygon>
                </g>
            </g>
        </g>
    </g>
</svg>