<?xml version="1.0" encoding="UTF-8"?>
<svg width="348px" height="120px" viewBox="0 0 348 120" version="1.1" xmlns="http://www.w3.org/2000/svg" xmlns:xlink="http://www.w3.org/1999/xlink">
    <!-- Generator: Sketch 43.1 (39012) - http://www.bohemiancoding.com/sketch -->
    <title>LOGO</title>
    <desc>Created with Sketch.</desc>
    <defs>
        <polygon id="path-1" points="0 119.328767 347.009282 119.328767 347.009282 0.0996712329 0 0.0996712329"></polygon>
    </defs>
    <g id="Welcome" stroke="none" stroke-width="1" fill="none" fill-rule="evenodd">
        <g id="Desktop-HD" transform="translate(-834.000000, -905.000000)">
            <g id="OVER-ONS" transform="translate(0.000000, 719.000000)">
                <g id="LOGO" transform="translate(834.000000, 186.000000)">
                    <polygon id="Fill-1" fill="#FEFEFE" points="1.45061053 1.29493699 1.45061053 8.36425205 36.8766775 8.36425205 0.000333014354 67.8334027 0.000333014354 75.320526 45.7848115 75.320526 45.7848115 68.2495397 8.59709856 68.2495397 45.7848115 7.9497863 45.7848115 1.29493699"></polygon>
                    <g id="Group-23" transform="translate(0.000000, 0.571227)">
                        <path d="M87.0113225,75.3725014 C72.0956096,75.3725014 61.3225952,65.0810493 61.3225952,50.3173781 L61.3225952,0.723542466 L69.1967196,0.723542466 L69.1967196,49.692337 C69.1967196,60.9213507 76.2383081,68.3031863 87.0113225,68.3031863 C97.7860019,68.3031863 104.93249,60.9213507 104.93249,49.692337 L104.93249,0.723542466 L112.803284,0.723542466 L112.803284,50.3173781 C112.803284,65.0810493 101.9287,75.3725014 87.0113225,75.3725014 Z" id="Fill-2" fill="#FEFEFE"></path>
                        <path d="M160.66161,7.79352603 L140.980461,7.79352603 L140.980461,34.9293342 L160.66161,34.9293342 C169.26004,34.9293342 175.370854,30.4587863 175.370854,21.414074 C175.370854,12.3676904 169.26004,7.79352603 160.66161,7.79352603 L160.66161,7.79352603 Z M175.474088,74.7481288 L158.693495,41.8950329 L140.980461,41.8950329 L140.980461,74.7481288 L133.108002,74.7481288 L133.108002,0.724210959 L161.387581,0.724210959 C174.230279,0.724210959 183.243313,8.52218356 183.243313,21.3087863 C183.243313,32.121663 176.717897,39.1926493 167.187026,41.1680466 L184.69359,74.7481288 L175.474088,74.7481288 Z" id="Fill-4" fill="#FEFEFE"></path>
                        <mask id="mask-2" fill="white">
                            <use xlink:href="#path-1"></use>
                        </mask>
                        <g id="Clip-7"></g>
                        <polygon id="Fill-6" fill="#FEFEFE" mask="url(#mask-2)" points="201.059081 74.7486301 208.933206 74.7486301 208.933206 0.724712329 201.059081 0.724712329"></polygon>
                        <path d="M253.266574,75.3725014 C246.015187,75.3725014 239.384871,72.6701178 234.412967,67.6781452 C227.472947,60.7141178 227.472947,53.4358986 227.472947,37.736337 C227.472947,22.0367753 227.472947,14.7602274 234.412967,7.79285753 C239.384871,2.8042274 246.015187,0.100172603 253.266574,0.100172603 C266.525541,0.100172603 276.36445,8.20899452 278.850402,22.1403918 L270.771474,22.1403918 C268.803359,13.0956795 262.484411,7.16948767 253.266574,7.16948767 C248.396239,7.16948767 243.735703,9.04126849 240.525445,12.3686932 C235.863244,17.1517616 235.345407,22.2456795 235.345407,37.736337 C235.345407,53.2286658 235.863244,58.3225836 240.525445,63.1039808 C243.735703,66.4314055 248.396239,68.3031863 253.266574,68.3031863 C262.484411,68.3031863 269.009828,62.3769945 270.979608,53.3322822 L278.850402,53.3322822 C276.469349,67.2620082 266.420641,75.3725014 253.266574,75.3725014" id="Fill-8" fill="#FEFEFE" mask="url(#mask-2)"></path>
                        <polygon id="Fill-9" fill="#FEFEFE" mask="url(#mask-2)" points="339.137989 74.7489644 339.137989 40.9599781 304.126524 40.9599781 304.126524 74.7489644 296.2524 74.7489644 296.2524 0.725046575 304.126524 0.725046575 304.126524 33.8889918 339.137989 33.8889918 339.137989 0.725046575 347.010448 0.725046575 347.010448 74.7489644"></polygon>
                        <polygon id="Fill-10" fill="#FEFEFE" mask="url(#mask-2)" points="75.9494182 119.14443 75.9494182 101.091773 69.3290928 116.069362 67.6756766 116.069362 60.935466 101.091773 60.935466 119.14443 59.2803847 119.14443 59.2803847 97.2462658 60.935466 97.2462658 68.5331885 114.130732 75.9494182 97.2462658 77.6028344 97.2462658 77.6028344 119.14443"></polygon>
                        <polygon id="Fill-11" fill="#FEFEFE" mask="url(#mask-2)" points="84.3512038 119.14443 84.3512038 97.2462658 97.5885244 97.2462658 97.5885244 98.7236356 86.0062852 98.7236356 86.0062852 107.365581 95.8735005 107.365581 95.8735005 108.841279 86.0062852 108.841279 86.0062852 117.668732 97.5885244 117.668732 97.5885244 119.14443"></polygon>
                        <path d="M110.769566,98.7239699 L104.335728,98.7239699 L104.335728,107.581504 L110.769566,107.581504 C113.558561,107.581504 115.581623,106.16597 115.581623,103.151066 C115.581623,100.139504 113.558561,98.7239699 110.769566,98.7239699 L110.769566,98.7239699 Z M115.548322,119.144764 L110.339977,109.057203 L104.335728,109.057203 L104.335728,119.144764 L102.680647,119.144764 L102.680647,97.2466 L110.98436,97.2466 C114.539288,97.2466 117.235039,99.3089014 117.235039,103.120984 C117.235039,106.381559 115.273585,108.504025 112.208188,109.025449 L117.479805,119.144764 L115.548322,119.144764 Z" id="Fill-12" fill="#FEFEFE" mask="url(#mask-2)"></path>
                        <path d="M129.43502,119.328767 C127.383652,119.328767 125.422197,118.528247 123.98191,117.08263 C121.990484,115.085507 121.958848,113.146877 121.958848,108.196685 C121.958848,103.244822 121.990484,101.307863 123.98191,99.3090685 C125.422197,97.8617808 127.383652,97.0629315 129.43502,97.0629315 C133.327958,97.0629315 136.146924,99.4929041 136.85125,103.460411 L135.164532,103.460411 C134.521814,100.445507 132.378867,98.5403014 129.43502,98.5403014 C127.874848,98.5403014 126.402924,99.1235616 125.298982,100.229918 C123.737144,101.799205 123.613929,103.490493 123.613929,108.196685 C123.613929,112.901205 123.737144,114.592493 125.298982,116.16011 C126.402924,117.269808 127.874848,117.853068 129.43502,117.853068 C132.378867,117.853068 134.583422,115.946192 135.227805,112.932959 L136.85125,112.932959 C136.146924,116.898795 133.26635,119.328767 129.43502,119.328767" id="Fill-13" fill="#FEFEFE" mask="url(#mask-2)"></path>
                        <path d="M148.40768,99.4616521 L143.843719,112.348529 L152.973307,112.348529 L148.40768,99.4616521 Z M155.394322,119.143762 L153.494475,113.824227 L143.320886,113.824227 L141.422704,119.143762 L139.644408,119.143762 L147.673384,97.2472685 L149.141977,97.2472685 L157.172618,119.143762 L155.394322,119.143762 Z" id="Fill-14" fill="#FEFEFE" mask="url(#mask-2)"></path>
                        <polygon id="Fill-15" fill="#FEFEFE" mask="url(#mask-2)" points="164.253502 98.7239699 164.253502 119.144764 162.600086 119.144764 162.600086 98.7239699 156.102976 98.7239699 156.102976 97.2466 170.780584 97.2466 170.780584 98.7239699"></polygon>
                        <path d="M185.829502,100.230419 C184.727225,99.124063 183.255301,98.5391315 181.693464,98.5391315 C180.129962,98.5391315 178.658038,99.124063 177.555761,100.230419 C175.993923,101.798036 175.872373,103.490995 175.872373,108.197186 C175.872373,112.901707 175.993923,114.592995 177.555761,116.160611 C178.658038,117.268638 180.129962,117.85357 181.693464,117.85357 C183.255301,117.85357 184.727225,117.268638 185.829502,116.160611 C187.39134,114.592995 187.514555,112.901707 187.514555,108.197186 C187.514555,103.490995 187.39134,101.798036 185.829502,100.230419 M187.146574,117.083132 C185.706287,118.528748 183.744833,119.329268 181.693464,119.329268 C179.640431,119.329268 177.678976,118.528748 176.238689,117.083132 C174.247263,115.086008 174.215627,113.147378 174.215627,108.197186 C174.215627,103.245323 174.247263,101.308364 176.238689,99.3078986 C177.678976,97.8622822 179.640431,97.0617616 181.693464,97.0617616 C183.744833,97.0617616 185.706287,97.8622822 187.146574,99.3078986 C189.138,101.308364 189.169636,103.245323 189.169636,108.197186 C189.169636,113.147378 189.138,115.086008 187.146574,117.083132" id="Fill-16" fill="#FEFEFE" mask="url(#mask-2)"></path>
                        <path d="M203.146915,98.7239699 L196.714743,98.7239699 L196.714743,107.581504 L203.146915,107.581504 C205.937575,107.581504 207.958972,106.16597 207.958972,103.151066 C207.958972,100.139504 205.937575,98.7239699 203.146915,98.7239699 L203.146915,98.7239699 Z M207.927336,119.144764 L202.718991,109.057203 L196.714743,109.057203 L196.714743,119.144764 L195.059661,119.144764 L195.059661,97.2466 L203.361709,97.2466 C206.916637,97.2466 209.612389,99.3089014 209.612389,103.120984 C209.612389,106.381559 207.650934,108.504025 204.587202,109.025449 L209.858819,119.144764 L207.927336,119.144764 Z" id="Fill-17" fill="#FEFEFE" mask="url(#mask-2)"></path>
                        <path d="M223.009056,98.7239699 L216.851621,98.7239699 L216.851621,108.380353 L223.009056,108.380353 C226.012846,108.380353 228.125822,106.841148 228.125822,103.552162 C228.125822,100.261504 226.012846,98.7239699 223.009056,98.7239699 M223.192214,109.856052 L216.851621,109.856052 L216.851621,119.144764 L215.19654,119.144764 L215.19654,97.2466 L223.192214,97.2466 C226.961937,97.2466 229.780903,99.5545726 229.780903,103.552162 C229.780903,107.549751 226.961937,109.856052 223.192214,109.856052" id="Fill-18" fill="#FEFEFE" mask="url(#mask-2)"></path>
                        <polygon id="Fill-19" fill="#FEFEFE" mask="url(#mask-2)" points="234.536015 119.14443 234.536015 97.2462658 236.191097 97.2462658 236.191097 117.668732 247.771671 117.668732 247.771671 119.14443"></polygon>
                        <polygon id="Fill-20" fill="#FEFEFE" mask="url(#mask-2)" points="252.068056 119.14443 252.068056 97.2462658 265.303711 97.2462658 265.303711 98.7236356 253.721472 98.7236356 253.721472 107.365581 263.588687 107.365581 263.588687 108.841279 253.721472 108.841279 253.721472 117.668732 265.303711 117.668732 265.303711 119.14443"></polygon>
                        <polygon id="Fill-21" fill="#FEFEFE" mask="url(#mask-2)" points="270.396 119.144932 272.049416 119.144932 272.049416 97.2467671 270.396 97.2467671"></polygon>
                        <polygon id="Fill-22" fill="#FEFEFE" mask="url(#mask-2)" points="293.041309 119.14443 280.448371 100.107416 280.448371 119.14443 278.79329 119.14443 278.79329 97.2462658 280.448371 97.2462658 293.041309 116.223115 293.041309 97.2462658 294.69639 97.2462658 294.69639 119.14443"></polygon>
                    </g>
                </g>
            </g>
        </g>
    </g>
</svg>